<?xml version="1.0" encoding="UTF-8" standalone="no"?><svg xmlns="http://www.w3.org/2000/svg" xmlns:xlink="http://www.w3.org/1999/xlink" contentScriptType="application/ecmascript" contentStyleType="text/css" height="932px" preserveAspectRatio="none" style="width:611px;height:932px;" version="1.1" viewBox="0 0 611 932" width="611px" zoomAndPan="magnify"><defs><linearGradient id="g7vlximr3kyhb0" x1="0%" x2="100%" y1="50%" y2="50%"><stop offset="0%" stop-color="#FFFFFF"/><stop offset="100%" stop-color="#FFFFFF"/></linearGradient><filter height="300%" id="f7vlximr3kyhb" width="300%" x="-1" y="-1"><feGaussianBlur result="blurOut" stdDeviation="2.0"/><feColorMatrix in="blurOut" result="blurOut2" type="matrix" values="0 0 0 0 0 0 0 0 0 0 0 0 0 0 0 0 0 0 .4 0"/><feOffset dx="4.0" dy="4.0" in="blurOut2" result="blurOut3"/><feBlend in="SourceGraphic" in2="blurOut3" mode="normal"/></filter></defs><g><rect fill="url(#g7vlximr3kyhb0)" height="932" style="stroke: none; stroke-width: 1.0;" width="611" x="0" y="0"/><text fill="#000000" font-family="Roboto Condensed" font-size="18" font-weight="bold" lengthAdjust="spacingAndGlyphs" textLength="126" x="241.5" y="26.6992">Starting with git</text><text fill="#000000" font-family="Roboto Condensed" font-size="18" font-weight="bold" lengthAdjust="spacingAndGlyphs" textLength="0" x="306.5" y="47.793"/><ellipse cx="279.5" cy="62.1875" fill="#000000" filter="url(#f7vlximr3kyhb)" rx="10" ry="10" style="stroke: none; stroke-width: 1.0;"/><rect fill="#FFFFFF" filter="url(#f7vlximr3kyhb)" height="34.0625" rx="12.5" ry="12.5" style="stroke: #000000; stroke-width: 1.5;" width="331" x="114" y="92.1875"/><text fill="#000000" font-family="Roboto Condensed" font-size="12" lengthAdjust="spacingAndGlyphs" textLength="56" x="124" y="113.3203">navigate to</text><text fill="#000000" font-family="monospace" font-size="12" lengthAdjust="spacingAndGlyphs" textLength="252" x="183" y="113.4199">https://github.com/organisation-name</text><polygon fill="#FFFFFF" filter="url(#f7vlximr3kyhb)" points="230.5,146.25,328.5,146.25,340.5,158.25,328.5,170.25,230.5,170.25,218.5,158.25,230.5,146.25" style="stroke: #000000; stroke-width: 1.5;"/><text fill="#000000" font-family="Roboto Condensed" font-size="11" lengthAdjust="spacingAndGlyphs" textLength="98" x="230.5" y="162.0098">existing repository?</text><text fill="#000000" font-family="Roboto Condensed" font-size="11" lengthAdjust="spacingAndGlyphs" textLength="17" x="201.5" y="155.5645">yes</text><text fill="#000000" font-family="Roboto Condensed" font-size="11" lengthAdjust="spacingAndGlyphs" textLength="13" x="340.5" y="155.5645">no</text><rect fill="#FFFFFF" filter="url(#f7vlximr3kyhb)" height="34.0625" rx="12.5" ry="12.5" style="stroke: #000000; stroke-width: 1.5;" width="151" x="51" y="180.25"/><text fill="#000000" font-family="Roboto Condensed" font-size="12" lengthAdjust="spacingAndGlyphs" textLength="131" x="61" y="201.3828">navigate to the repository</text><rect fill="#FFFFFF" filter="url(#f7vlximr3kyhb)" height="34.0625" rx="12.5" ry="12.5" style="stroke: #000000; stroke-width: 1.5;" width="131" x="61" y="282.7578"/><text fill="#000000" font-family="Roboto Condensed" font-size="12" lengthAdjust="spacingAndGlyphs" textLength="45" x="71" y="303.8906">click the</text><text fill="#000000" font-family="monospace" font-size="12" lengthAdjust="spacingAndGlyphs" textLength="28" x="119" y="303.9902">Fork</text><text fill="#000000" font-family="Roboto Condensed" font-size="12" lengthAdjust="spacingAndGlyphs" textLength="32" x="150" y="303.8906">button</text><polygon fill="#FFFFFF" filter="url(#f7vlximr3kyhb)" points="32,234.3125,221,234.3125,233,246.3125,221,258.3125,32,258.3125,20,246.3125,32,234.3125" style="stroke: #000000; stroke-width: 1.5;"/><text fill="#000000" font-family="Roboto Condensed" font-size="11" lengthAdjust="spacingAndGlyphs" textLength="13" x="130.5" y="268.5176">no</text><text fill="#000000" font-family="Roboto Condensed" font-size="11" lengthAdjust="spacingAndGlyphs" textLength="189" x="32" y="250.0723">allowed to directly edit the repository?</text><polygon fill="#FFFFFF" filter="url(#f7vlximr3kyhb)" points="126.5,341.2656,138.5,353.2656,126.5,365.2656,114.5,353.2656,126.5,341.2656" style="stroke: #000000; stroke-width: 1.5;"/><rect fill="#FFFFFF" filter="url(#f7vlximr3kyhb)" height="34.0625" rx="12.5" ry="12.5" style="stroke: #000000; stroke-width: 1.5;" width="143" x="361" y="180.25"/><text fill="#000000" font-family="Roboto Condensed" font-size="12" lengthAdjust="spacingAndGlyphs" textLength="123" x="371" y="201.3828">create a new repository</text><rect fill="#FFFFFF" filter="url(#f7vlximr3kyhb)" height="34.0625" rx="12.5" ry="12.5" style="stroke: #000000; stroke-width: 1.5;" width="335" x="265" y="234.3125"/><text fill="#000000" font-family="Roboto Condensed" font-size="12" lengthAdjust="spacingAndGlyphs" textLength="315" x="275" y="255.4453">enter repository name in only lower case letters and hyphens</text><rect fill="#FFFFFF" filter="url(#f7vlximr3kyhb)" height="48.125" rx="12.5" ry="12.5" style="stroke: #000000; stroke-width: 1.5;" width="290" x="287.5" y="303.375"/><text fill="#000000" font-family="Roboto Condensed" font-size="12" lengthAdjust="spacingAndGlyphs" textLength="270" x="297.5" y="324.5078">add a description, starting with an upper case letter,</text><text fill="#000000" font-family="Roboto Condensed" font-size="12" lengthAdjust="spacingAndGlyphs" textLength="177" x="297.5" y="338.5703">do not use any without punctuation</text><rect fill="#FFFFFF" filter="url(#f7vlximr3kyhb)" height="34.0625" rx="12.5" ry="12.5" style="stroke: #000000; stroke-width: 1.5;" width="170" x="347.5" y="385.2656"/><text fill="#000000" font-family="Roboto Condensed" font-size="12" lengthAdjust="spacingAndGlyphs" textLength="150" x="357.5" y="406.3984">choose to initalize a README</text><rect fill="#FFFFFF" filter="url(#f7vlximr3kyhb)" height="34.0625" rx="12.5" ry="12.5" style="stroke: #000000; stroke-width: 1.5;" width="266" x="299.5" y="439.3281"/><text fill="#000000" font-family="Roboto Condensed" font-size="12" lengthAdjust="spacingAndGlyphs" textLength="117" x="309.5" y="460.4609">choose a license, e.g.</text><text fill="#000000" font-family="monospace" font-size="12" lengthAdjust="spacingAndGlyphs" textLength="126" x="429.5" y="460.5605">Apache License 2.0</text><rect fill="#FFFFFF" filter="url(#f7vlximr3kyhb)" height="34.0625" rx="12.5" ry="12.5" style="stroke: #000000; stroke-width: 1.5;" width="203" x="331" y="493.3906"/><text fill="#000000" font-family="Roboto Condensed" font-size="12" lengthAdjust="spacingAndGlyphs" textLength="26" x="341" y="514.5234">click</text><text fill="#000000" font-family="monospace" font-size="12" lengthAdjust="spacingAndGlyphs" textLength="119" x="370" y="514.623">Create repository</text><text fill="#000000" font-family="Roboto Condensed" font-size="12" lengthAdjust="spacingAndGlyphs" textLength="32" x="492" y="514.5234">button</text><polygon fill="#FFFFFF" filter="url(#f7vlximr3kyhb)" points="279.5,533.4531,291.5,545.4531,279.5,557.4531,267.5,545.4531,279.5,533.4531" style="stroke: #000000; stroke-width: 1.5;"/><rect fill="#FFFFFF" filter="url(#f7vlximr3kyhb)" height="34.0625" rx="12.5" ry="12.5" style="stroke: #000000; stroke-width: 1.5;" width="222" x="168.5" y="577.4531"/><text fill="#000000" font-family="Roboto Condensed" font-size="12" lengthAdjust="spacingAndGlyphs" textLength="45" x="178.5" y="598.5859">click the</text><text fill="#000000" font-family="monospace" font-size="12" lengthAdjust="spacingAndGlyphs" textLength="119" x="226.5" y="598.6855">Clone or download</text><text fill="#000000" font-family="Roboto Condensed" font-size="12" lengthAdjust="spacingAndGlyphs" textLength="32" x="348.5" y="598.5859">button</text><rect fill="#FFFFFF" filter="url(#f7vlximr3kyhb)" height="34.0625" rx="12.5" ry="12.5" style="stroke: #000000; stroke-width: 1.5;" width="204" x="177.5" y="631.5156"/><text fill="#000000" font-family="Roboto Condensed" font-size="12" lengthAdjust="spacingAndGlyphs" textLength="184" x="187.5" y="652.6484">click the copy icon to copy the URL</text><rect fill="#FFFFFF" filter="url(#f7vlximr3kyhb)" height="34.0625" rx="12.5" ry="12.5" style="stroke: #000000; stroke-width: 1.5;" width="310" x="124.5" y="685.5781"/><text fill="#000000" font-family="Roboto Condensed" font-size="12" lengthAdjust="spacingAndGlyphs" textLength="290" x="134.5" y="706.7109">go to a terminal to your workspace or projects directory</text><rect fill="#FFFFFF" filter="url(#f7vlximr3kyhb)" height="34.0625" rx="12.5" ry="12.5" style="stroke: #000000; stroke-width: 1.5;" width="304" x="127.5" y="739.6406"/><text fill="#000000" font-family="Roboto Condensed" font-size="12" lengthAdjust="spacingAndGlyphs" textLength="27" x="137.5" y="760.7734">enter</text><text fill="#000000" font-family="monospace" font-size="12" lengthAdjust="spacingAndGlyphs" textLength="63" x="167.5" y="760.873">git clone</text><text fill="#000000" font-family="Roboto Condensed" font-size="12" lengthAdjust="spacingAndGlyphs" textLength="188" x="233.5" y="760.7734">and paste the URL (e.g. Ctrl+Shift+C)</text><rect fill="#FFFFFF" filter="url(#f7vlximr3kyhb)" height="34.0625" rx="12.5" ry="12.5" style="stroke: #000000; stroke-width: 1.5;" width="290" x="134.5" y="793.7031"/><text fill="#000000" font-family="Roboto Condensed" font-size="12" lengthAdjust="spacingAndGlyphs" textLength="270" x="144.5" y="814.8359">change into the directory named after the repository</text><rect fill="#FFFFFF" filter="url(#f7vlximr3kyhb)" height="34.0625" rx="12.5" ry="12.5" style="stroke: #000000; stroke-width: 1.5;" width="86" x="236.5" y="847.7656"/><text fill="#000000" font-family="Roboto Condensed" font-size="12" lengthAdjust="spacingAndGlyphs" textLength="66" x="246.5" y="868.8984">start working</text><ellipse cx="279.5" cy="911.8281" fill="none" filter="url(#f7vlximr3kyhb)" rx="10" ry="10" style="stroke: #000000; stroke-width: 1.0;"/><ellipse cx="280" cy="912.3281" fill="#000000" filter="url(#f7vlximr3kyhb)" rx="6" ry="6" style="stroke: none; stroke-width: 1.0;"/><line style="stroke: #000000; stroke-width: 1.5;" x1="279.5" x2="279.5" y1="72.1875" y2="92.1875"/><polygon fill="#000000" points="275.5,82.1875,279.5,92.1875,283.5,82.1875,279.5,86.1875" style="stroke: #000000; stroke-width: 1.0;"/><line style="stroke: #000000; stroke-width: 1.5;" x1="126.5" x2="126.5" y1="258.3125" y2="282.7578"/><polygon fill="#000000" points="122.5,272.7578,126.5,282.7578,130.5,272.7578,126.5,276.7578" style="stroke: #000000; stroke-width: 1.0;"/><line style="stroke: #000000; stroke-width: 1.5;" x1="233" x2="245" y1="246.3125" y2="246.3125"/><polygon fill="#000000" points="241,289.7891,245,299.7891,249,289.7891,245,293.7891" style="stroke: #000000; stroke-width: 1.5;"/><line style="stroke: #000000; stroke-width: 1.5;" x1="245" x2="245" y1="246.3125" y2="353.2656"/><line style="stroke: #000000; stroke-width: 1.5;" x1="245" x2="138.5" y1="353.2656" y2="353.2656"/><polygon fill="#000000" points="148.5,349.2656,138.5,353.2656,148.5,357.2656,144.5,353.2656" style="stroke: #000000; stroke-width: 1.0;"/><line style="stroke: #000000; stroke-width: 1.5;" x1="126.5" x2="126.5" y1="316.8203" y2="341.2656"/><polygon fill="#000000" points="122.5,331.2656,126.5,341.2656,130.5,331.2656,126.5,335.2656" style="stroke: #000000; stroke-width: 1.0;"/><line style="stroke: #000000; stroke-width: 1.5;" x1="126.5" x2="126.5" y1="214.3125" y2="234.3125"/><polygon fill="#000000" points="122.5,224.3125,126.5,234.3125,130.5,224.3125,126.5,228.3125" style="stroke: #000000; stroke-width: 1.0;"/><line style="stroke: #000000; stroke-width: 1.5;" x1="432.5" x2="432.5" y1="214.3125" y2="234.3125"/><polygon fill="#000000" points="428.5,224.3125,432.5,234.3125,436.5,224.3125,432.5,228.3125" style="stroke: #000000; stroke-width: 1.0;"/><line style="stroke: #000000; stroke-width: 1.5;" x1="432.5" x2="432.5" y1="268.375" y2="303.375"/><polygon fill="#000000" points="428.5,293.375,432.5,303.375,436.5,293.375,432.5,297.375" style="stroke: #000000; stroke-width: 1.0;"/><line style="stroke: #000000; stroke-width: 1.5;" x1="432.5" x2="432.5" y1="351.5" y2="385.2656"/><polygon fill="#000000" points="428.5,375.2656,432.5,385.2656,436.5,375.2656,432.5,379.2656" style="stroke: #000000; stroke-width: 1.0;"/><line style="stroke: #000000; stroke-width: 1.5;" x1="432.5" x2="432.5" y1="419.3281" y2="439.3281"/><polygon fill="#000000" points="428.5,429.3281,432.5,439.3281,436.5,429.3281,432.5,433.3281" style="stroke: #000000; stroke-width: 1.0;"/><line style="stroke: #000000; stroke-width: 1.5;" x1="432.5" x2="432.5" y1="473.3906" y2="493.3906"/><polygon fill="#000000" points="428.5,483.3906,432.5,493.3906,436.5,483.3906,432.5,487.3906" style="stroke: #000000; stroke-width: 1.0;"/><line style="stroke: #000000; stroke-width: 1.5;" x1="218.5" x2="126.5" y1="158.25" y2="158.25"/><line style="stroke: #000000; stroke-width: 1.5;" x1="126.5" x2="126.5" y1="158.25" y2="180.25"/><polygon fill="#000000" points="122.5,170.25,126.5,180.25,130.5,170.25,126.5,174.25" style="stroke: #000000; stroke-width: 1.0;"/><line style="stroke: #000000; stroke-width: 1.5;" x1="340.5" x2="432.5" y1="158.25" y2="158.25"/><line style="stroke: #000000; stroke-width: 1.5;" x1="432.5" x2="432.5" y1="158.25" y2="180.25"/><polygon fill="#000000" points="428.5,170.25,432.5,180.25,436.5,170.25,432.5,174.25" style="stroke: #000000; stroke-width: 1.0;"/><line style="stroke: #000000; stroke-width: 1.5;" x1="126.5" x2="126.5" y1="365.2656" y2="545.4531"/><line style="stroke: #000000; stroke-width: 1.5;" x1="126.5" x2="267.5" y1="545.4531" y2="545.4531"/><polygon fill="#000000" points="257.5,541.4531,267.5,545.4531,257.5,549.4531,261.5,545.4531" style="stroke: #000000; stroke-width: 1.0;"/><line style="stroke: #000000; stroke-width: 1.5;" x1="432.5" x2="432.5" y1="527.4531" y2="545.4531"/><line style="stroke: #000000; stroke-width: 1.5;" x1="432.5" x2="291.5" y1="545.4531" y2="545.4531"/><polygon fill="#000000" points="301.5,541.4531,291.5,545.4531,301.5,549.4531,297.5,545.4531" style="stroke: #000000; stroke-width: 1.0;"/><line style="stroke: #000000; stroke-width: 1.5;" x1="279.5" x2="279.5" y1="126.25" y2="146.25"/><polygon fill="#000000" points="275.5,136.25,279.5,146.25,283.5,136.25,279.5,140.25" style="stroke: #000000; stroke-width: 1.0;"/><line style="stroke: #000000; stroke-width: 1.5;" x1="279.5" x2="279.5" y1="557.4531" y2="577.4531"/><polygon fill="#000000" points="275.5,567.4531,279.5,577.4531,283.5,567.4531,279.5,571.4531" style="stroke: #000000; stroke-width: 1.0;"/><line style="stroke: #000000; stroke-width: 1.5;" x1="279.5" x2="279.5" y1="611.5156" y2="631.5156"/><polygon fill="#000000" points="275.5,621.5156,279.5,631.5156,283.5,621.5156,279.5,625.5156" style="stroke: #000000; stroke-width: 1.0;"/><line style="stroke: #000000; stroke-width: 1.5;" x1="279.5" x2="279.5" y1="665.5781" y2="685.5781"/><polygon fill="#000000" points="275.5,675.5781,279.5,685.5781,283.5,675.5781,279.5,679.5781" style="stroke: #000000; stroke-width: 1.0;"/><line style="stroke: #000000; stroke-width: 1.5;" x1="279.5" x2="279.5" y1="719.6406" y2="739.6406"/><polygon fill="#000000" points="275.5,729.6406,279.5,739.6406,283.5,729.6406,279.5,733.6406" style="stroke: #000000; stroke-width: 1.0;"/><line style="stroke: #000000; stroke-width: 1.5;" x1="279.5" x2="279.5" y1="773.7031" y2="793.7031"/><polygon fill="#000000" points="275.5,783.7031,279.5,793.7031,283.5,783.7031,279.5,787.7031" style="stroke: #000000; stroke-width: 1.0;"/><line style="stroke: #000000; stroke-width: 1.5;" x1="279.5" x2="279.5" y1="827.7656" y2="847.7656"/><polygon fill="#000000" points="275.5,837.7656,279.5,847.7656,283.5,837.7656,279.5,841.7656" style="stroke: #000000; stroke-width: 1.0;"/><line style="stroke: #000000; stroke-width: 1.5;" x1="279.5" x2="279.5" y1="881.8281" y2="901.8281"/><polygon fill="#000000" points="275.5,891.8281,279.5,901.8281,283.5,891.8281,279.5,895.8281" style="stroke: #000000; stroke-width: 1.0;"/><!--
@startuml
skinparam BackgroundColor White|White
skinparam ArrowColor Black
skinparam DefaultFontName Roboto Condensed
skinparam TitleFontStyle Bold

skinparam NoteBackgroundColor White
skinparam NoteBorderColor Black

skinparam UsecaseBackgroundColor White
skinparam ActorBackgroundColor White
skinparam UsecaseBorderColor Black
skinparam ActorBorderColor Black

skinparam usecase {
	BackgroundColor<<for now out of scope>> Gray
}

skinparam StateBackgroundColor White
skinparam StateBorderColor Black

skinparam ActivityBackgroundColor White
skinparam ActivityDiamondBackgroundColor White
skinparam ActivityBorderColor Black
skinparam ActivityDiamondBorderColor Black

skinparam ClassBackgroundColor White
skinparam ClassBorderColor Black
hide empty members
title Starting with git\n
start

:navigate to ""https://github.com/organisation-name"";
if (existing repository?) then (yes)
	:navigate to the repository;
	if (allowed to directly edit the repository?) then (no)
		:click the ""Fork"" button;
	endif
else (no)
	:create a new repository;
	:enter repository name in only lower case letters and hyphens;
	:add a description, starting with an upper case letter,
do not use any without punctuation;
	:choose to initalize a README;
	:choose a license, e.g. ""Apache License 2.0"";
	:click ""Create repository"" button;
endif
:click the ""Clone or download"" button;
:click the copy icon to copy the URL;
:go to a terminal to your workspace or projects directory;
:enter ""git clone"" and paste the URL (e.g. Ctrl+Shift+C);
:change into the directory named after the repository;
:start working;

stop
@enduml

PlantUML version 1.2018.09(Fri Jul 27 18:58:18 CEST 2018)
(GPL source distribution)
Java Runtime: OpenJDK Runtime Environment
JVM: OpenJDK 64-Bit Server VM
Java Version: 11.0.1+13-Ubuntu-2ubuntu1
Operating System: Linux
OS Version: 4.18.0-10-generic
Default Encoding: UTF-8
Language: en
Country: US
--></g></svg>